# xmcd
#
# Track frame offsets: 
#        150
#        19357
#        45790
#        69439
#        96398
#        121189
#        143902
#        165787
#        190692
#        214826
#
# Disc length: 3144 seconds
#
# Revision: 0
# Processed by: cddbd v1.5.2PL0 Copyright (c) Steve Scherf et al.
# Submitted via: ExactAudioCopy v1.0b3
#
DISCID=7e0c460a
DTITLE=Various Artist - Ly Chim Quyen
DYEAR=1994
DGENRE=
TTITLE0=Phuong Mai - Ly chim quyen
TTITLE1=Giao Linh - Ve tham em
TTITLE2=Huong Lan - Mua ngoai troi mua tinh nguoi
TTITLE3=Phuong Mai - Long Me
TTITLE4=Tuan Vu - Dem bo vo
TTITLE5=Phuong Mai - Dom dom
TTITLE6=Nhat Linh - Con gi dau em
TTITLE7=Huong Lan - Tinh lo
TTITLE8=Phuong Mai - Mua tren pho Hue
TTITLE9=Tuan Vu - Ky niem mot mua he
EXTD=
EXTT0=
EXTT1=
EXTT2=
EXTT3=
EXTT4=
EXTT5=
EXTT6=
EXTT7=
EXTT8=
EXTT9=
PLAYORDER=
